<svg xmlns="http://www.w3.org/2000/svg" width="158" height="53" viewBox="0 0 158 53" fill="none">
  <g filter="url(#filter0_n_3226_5713)">
    <path d="M28.1592 52.3989H29.8672C29.3978 52.4261 28.9251 52.4409 28.4492 52.4409C14.661 52.4409 3.4834 40.8752 3.4834 26.6079C3.48349 12.4409 14.5046 0.939647 28.1592 0.778809V52.3989Z" fill="white"/>
  </g>
  <g filter="url(#filter1_n_3226_5713)">
    <path d="M113.914 34.993C105.007 29.1428 102.599 17.2852 108.536 8.50821C114.473 -0.268808 126.507 -2.64145 135.414 3.20868L142.51 7.86928C142.51 7.86928 140.943 8.78546 139.78 10.6953C139.136 11.7538 137.815 16.1804 137.815 16.1804C137.815 16.1804 139.78 15.274 143.091 17.4484C151.999 23.2986 154.407 35.1562 148.47 43.9331C142.532 52.7101 130.499 55.083 121.591 49.2326L114.495 44.5721C114.495 44.5721 116.455 42.879 117.297 41.6355C118.138 40.392 119.577 36.65 119.577 36.65L113.914 34.993Z" fill="white"/>
  </g>
  <path d="M4.07111 28.8563C-3.6635 32.717 1.54268 43.478 4.07126 38.8943C8.96354 30.0256 40.513 29.9265 72.0625 34.969C103.612 40.0114 157.144 17.092 157.144 17.092C157.144 17.092 112.161 27.8737 78.1688 21.5319C44.1768 15.1901 12.6163 24.5909 4.07111 28.8563Z" fill="url(#paint0_linear_3226_5713)"/>
  <g filter="url(#filter2_n_3226_5713)">
    <path d="M53.9191 25.608C53.9191 25.608 54.3089 44.7988 54.3089 49.8949C52.3389 46.3803 48.8518 43.2017 48.8518 43.2017C46.7027 45.6619 39.618 52.4122 31.0215 52.4122V0.776855C47.319 1.80206 54.2803 12.7686 53.3848 22.9609C53.3848 22.9609 46.8333 26.3729 43.0348 26.977C39.2364 27.5811 33.2601 26.3729 33.2601 26.3729C37.5478 32.3012 51.0536 32.11 53.9191 25.608Z" fill="white"/>
  </g>
  <g filter="url(#filter3_n_3226_5713)">
    <path d="M100.122 44.875C96.45 48.6272 91.7359 51.1327 86.6206 52.0513C81.5053 52.9698 76.2372 52.2571 71.5325 50.0095C66.8277 47.7619 62.9145 44.089 60.3247 39.4898C57.735 34.8905 56.5944 29.5881 57.058 24.3034C57.5215 19.0187 59.5668 14.0079 62.9157 9.95235C66.2646 5.89681 70.7547 2.99312 75.7757 1.63606C80.7966 0.278992 86.1048 0.534378 90.9787 2.36749C95.8524 4.20061 100.056 7.52254 103.017 11.8817C103.017 11.8817 88.6126 19.7073 82.2429 26.6091C90.9787 31.7361 100.122 44.875 100.122 44.875Z" fill="white"/>
  </g>
  <defs>
    <filter id="filter0_n_3226_5713" x="3.4834" y="0.778809" width="26.3838" height="51.6621" filterUnits="userSpaceOnUse" color-interpolation-filters="sRGB">
      <feFlood flood-opacity="0" result="BackgroundImageFix"/>
      <feBlend mode="normal" in="SourceGraphic" in2="BackgroundImageFix" result="shape"/>
      <feTurbulence type="fractalNoise" baseFrequency="1.7066667079925537 1.7066667079925537" stitchTiles="stitch" numOctaves="3" result="noise" seed="6542"/>
      <feColorMatrix in="noise" type="luminanceToAlpha" result="alphaNoise"/>
      <feComponentTransfer in="alphaNoise" result="coloredNoise1">
        <feFuncA type="discrete" tableValues="1 1 1 1 1 1 1 1 1 1 1 1 1 1 1 1 1 1 1 1 1 1 1 1 1 1 1 1 1 1 1 1 1 1 1 1 1 1 1 1 1 1 1 1 1 1 1 1 1 1 1 0 0 0 0 0 0 0 0 0 0 0 0 0 0 0 0 0 0 0 0 0 0 0 0 0 0 0 0 0 0 0 0 0 0 0 0 0 0 0 0 0 0 0 0 0 0 0 0 0 "/>
      </feComponentTransfer>
      <feComposite operator="in" in2="shape" in="coloredNoise1" result="noise1Clipped"/>
      <feFlood flood-color="rgba(0, 0, 0, 0.01)" result="color1Flood"/>
      <feComposite operator="in" in2="noise1Clipped" in="color1Flood" result="color1"/>
      <feMerge result="effect1_noise_3226_5713">
        <feMergeNode in="shape"/>
        <feMergeNode in="color1"/>
      </feMerge>
    </filter>
    <filter id="filter1_n_3226_5713" x="105.279" y="0" width="46.4463" height="52.4414" filterUnits="userSpaceOnUse" color-interpolation-filters="sRGB">
      <feFlood flood-opacity="0" result="BackgroundImageFix"/>
      <feBlend mode="normal" in="SourceGraphic" in2="BackgroundImageFix" result="shape"/>
      <feTurbulence type="fractalNoise" baseFrequency="1.7066667079925537 1.7066667079925537" stitchTiles="stitch" numOctaves="3" result="noise" seed="6542"/>
      <feColorMatrix in="noise" type="luminanceToAlpha" result="alphaNoise"/>
      <feComponentTransfer in="alphaNoise" result="coloredNoise1">
        <feFuncA type="discrete" tableValues="1 1 1 1 1 1 1 1 1 1 1 1 1 1 1 1 1 1 1 1 1 1 1 1 1 1 1 1 1 1 1 1 1 1 1 1 1 1 1 1 1 1 1 1 1 1 1 1 1 1 1 0 0 0 0 0 0 0 0 0 0 0 0 0 0 0 0 0 0 0 0 0 0 0 0 0 0 0 0 0 0 0 0 0 0 0 0 0 0 0 0 0 0 0 0 0 0 0 0 0 "/>
      </feComponentTransfer>
      <feComposite operator="in" in2="shape" in="coloredNoise1" result="noise1Clipped"/>
      <feFlood flood-color="rgba(0, 0, 0, 0.01)" result="color1Flood"/>
      <feComposite operator="in" in2="noise1Clipped" in="color1Flood" result="color1"/>
      <feMerge result="effect1_noise_3226_5713">
        <feMergeNode in="shape"/>
        <feMergeNode in="color1"/>
      </feMerge>
    </filter>
    <filter id="filter2_n_3226_5713" x="31.0215" y="0.776855" width="23.2871" height="51.6353" filterUnits="userSpaceOnUse" color-interpolation-filters="sRGB">
      <feFlood flood-opacity="0" result="BackgroundImageFix"/>
      <feBlend mode="normal" in="SourceGraphic" in2="BackgroundImageFix" result="shape"/>
      <feTurbulence type="fractalNoise" baseFrequency="1.7066667079925537 1.7066667079925537" stitchTiles="stitch" numOctaves="3" result="noise" seed="6542"/>
      <feColorMatrix in="noise" type="luminanceToAlpha" result="alphaNoise"/>
      <feComponentTransfer in="alphaNoise" result="coloredNoise1">
        <feFuncA type="discrete" tableValues="1 1 1 1 1 1 1 1 1 1 1 1 1 1 1 1 1 1 1 1 1 1 1 1 1 1 1 1 1 1 1 1 1 1 1 1 1 1 1 1 1 1 1 1 1 1 1 1 1 1 1 0 0 0 0 0 0 0 0 0 0 0 0 0 0 0 0 0 0 0 0 0 0 0 0 0 0 0 0 0 0 0 0 0 0 0 0 0 0 0 0 0 0 0 0 0 0 0 0 0 "/>
      </feComponentTransfer>
      <feComposite operator="in" in2="shape" in="coloredNoise1" result="noise1Clipped"/>
      <feFlood flood-color="rgba(0, 0, 0, 0.01)" result="color1Flood"/>
      <feComposite operator="in" in2="noise1Clipped" in="color1Flood" result="color1"/>
      <feMerge result="effect1_noise_3226_5713">
        <feMergeNode in="shape"/>
        <feMergeNode in="color1"/>
      </feMerge>
    </filter>
    <filter id="filter3_n_3226_5713" x="56.957" y="0.776855" width="46.0596" height="51.6646" filterUnits="userSpaceOnUse" color-interpolation-filters="sRGB">
      <feFlood flood-opacity="0" result="BackgroundImageFix"/>
      <feBlend mode="normal" in="SourceGraphic" in2="BackgroundImageFix" result="shape"/>
      <feTurbulence type="fractalNoise" baseFrequency="1.7066667079925537 1.7066667079925537" stitchTiles="stitch" numOctaves="3" result="noise" seed="6542"/>
      <feColorMatrix in="noise" type="luminanceToAlpha" result="alphaNoise"/>
      <feComponentTransfer in="alphaNoise" result="coloredNoise1">
        <feFuncA type="discrete" tableValues="1 1 1 1 1 1 1 1 1 1 1 1 1 1 1 1 1 1 1 1 1 1 1 1 1 1 1 1 1 1 1 1 1 1 1 1 1 1 1 1 1 1 1 1 1 1 1 1 1 1 1 0 0 0 0 0 0 0 0 0 0 0 0 0 0 0 0 0 0 0 0 0 0 0 0 0 0 0 0 0 0 0 0 0 0 0 0 0 0 0 0 0 0 0 0 0 0 0 0 0 "/>
      </feComponentTransfer>
      <feComposite operator="in" in2="shape" in="coloredNoise1" result="noise1Clipped"/>
      <feFlood flood-color="rgba(0, 0, 0, 0.01)" result="color1Flood"/>
      <feComposite operator="in" in2="noise1Clipped" in="color1Flood" result="color1"/>
      <feMerge result="effect1_noise_3226_5713">
        <feMergeNode in="shape"/>
        <feMergeNode in="color1"/>
      </feMerge>
    </filter>
    <linearGradient id="paint0_linear_3226_5713" x1="-0.195992" y1="35.8167" x2="154.805" y2="13.968" gradientUnits="userSpaceOnUse">
      <stop stop-color="#FD6F22"/>
      <stop offset="0.355769" stop-color="#EE4A08"/>
      <stop offset="1" stop-color="#FD6F22"/>
    </linearGradient>
  </defs>
</svg>
