<svg xmlns="http://www.w3.org/2000/svg" width="57" height="19" viewBox="0 0 57 19" fill="none">
  <path d="M10.1855 18.8845H10.793C10.6265 18.8939 10.4588 18.9001 10.29 18.9001C5.30276 18.9001 1.25977 14.7316 1.25977 9.5896C1.2598 4.48363 5.24644 0.338745 10.1855 0.281006V18.8845Z" fill="black"/>
  <path d="M41.2033 12.6116C37.9814 10.5031 37.1105 6.22964 39.2579 3.06638C41.4054 -0.0968791 45.7581 -0.951984 48.98 1.15641L51.5468 2.83611C51.5468 2.83611 50.98 3.1663 50.5593 3.85463C50.3262 4.2361 49.8486 5.83144 49.8486 5.83144C49.8486 5.83144 50.5593 5.5048 51.7569 6.28846C54.9787 8.39686 55.8497 12.6704 53.7023 15.8336C51.5548 18.9969 47.2021 19.852 43.9802 17.7435L41.4134 16.0639C41.4134 16.0639 42.1225 15.4537 42.4268 15.0055C42.731 14.5574 43.2515 13.2087 43.2515 13.2087L41.2033 12.6116Z" fill="black"/>
  <path d="M1.47254 10.3998C-1.32511 11.7912 0.557997 15.6695 1.4726 14.0175C3.24216 10.8212 14.6538 10.7855 26.0654 12.6028C37.477 14.4201 56.84 6.15991 56.84 6.15991C56.84 6.15991 40.5692 10.0456 28.2741 7.76004C15.979 5.47444 4.56339 8.86253 1.47254 10.3998Z" fill="url(#paint0_linear_3454_2565)"/>
  <path d="M19.5029 9.22923C19.5029 9.22923 19.6439 16.1456 19.6439 17.9823C18.9313 16.7156 17.67 15.57 17.67 15.57C16.8927 16.4567 14.3301 18.8895 11.2207 18.8895V0.280029C17.1156 0.649516 19.6335 4.60188 19.3096 8.27522C19.3096 8.27522 16.9399 9.50491 15.566 9.72263C14.1921 9.94034 12.0304 9.50491 12.0304 9.50491C13.5813 11.6415 18.4664 11.5726 19.5029 9.22923Z" fill="black"/>
  <path d="M36.2147 16.1731C34.8864 17.5254 33.1813 18.4284 31.331 18.7594C29.4808 19.0905 27.5753 18.8336 25.8736 18.0236C24.1718 17.2136 22.7564 15.8898 21.8197 14.2323C20.883 12.5747 20.4704 10.6637 20.6381 8.75906C20.8057 6.85442 21.5455 5.04854 22.7568 3.5869C23.9682 2.12527 25.5923 1.07878 27.4084 0.589687C29.2245 0.100598 31.1445 0.19264 32.9074 0.853297C34.6702 1.51396 36.1906 2.71119 37.2616 4.28223C37.2616 4.28223 32.0515 7.10262 29.7476 9.59002C32.9074 11.4378 36.2147 16.1731 36.2147 16.1731Z" fill="black"/>
  <defs>
    <linearGradient id="paint0_linear_3454_2565" x1="-0.0708912" y1="12.9083" x2="55.9858" y2="4.97806" gradientUnits="userSpaceOnUse">
      <stop stop-color="#FD6F22"/>
      <stop offset="0.355769" stop-color="#EE4A08"/>
      <stop offset="1" stop-color="#FD6F22"/>
    </linearGradient>
  </defs>
</svg>
